<svg width="90" height="782" viewBox="0 0 90 782" fill="none" xmlns="http://www.w3.org/2000/svg">
<g clip-path="url(#clip0_15_383)">
<path d="M45 773C46.6569 773 48 771.657 48 770C48 768.343 46.6569 767 45 767C43.3431 767 42 768.343 42 770C42 771.657 43.3431 773 45 773Z" stroke="#F15751" stroke-width="2" stroke-linecap="round" stroke-linejoin="round"/>
<path d="M52.4 773C52.2669 773.302 52.2272 773.636 52.286 773.961C52.3448 774.285 52.4995 774.584 52.73 774.82L52.79 774.88C52.976 775.066 53.1235 775.286 53.2241 775.529C53.3248 775.772 53.3766 776.032 53.3766 776.295C53.3766 776.558 53.3248 776.818 53.2241 777.061C53.1235 777.304 52.976 777.524 52.79 777.71C52.6043 777.896 52.3837 778.043 52.1409 778.144C51.8981 778.245 51.6378 778.297 51.375 778.297C51.1122 778.297 50.8519 778.245 50.6091 778.144C50.3663 778.043 50.1457 777.896 49.96 777.71L49.9 777.65C49.6643 777.419 49.365 777.265 49.0406 777.206C48.7162 777.147 48.3816 777.187 48.08 777.32C47.7842 777.447 47.532 777.657 47.3543 777.926C47.1766 778.194 47.0813 778.508 47.08 778.83V779C47.08 779.53 46.8693 780.039 46.4942 780.414C46.1191 780.789 45.6104 781 45.08 781C44.5496 781 44.0409 780.789 43.6658 780.414C43.2907 780.039 43.08 779.53 43.08 779V778.91C43.0723 778.579 42.9651 778.258 42.7725 777.989C42.5799 777.719 42.3107 777.514 42 777.4C41.6984 777.267 41.3638 777.227 41.0394 777.286C40.715 777.345 40.4157 777.499 40.18 777.73L40.12 777.79C39.9343 777.976 39.7137 778.123 39.4709 778.224C39.2281 778.325 38.9678 778.377 38.705 778.377C38.4422 778.377 38.1819 778.325 37.9391 778.224C37.6963 778.123 37.4757 777.976 37.29 777.79C37.104 777.604 36.9565 777.384 36.8559 777.141C36.7552 776.898 36.7034 776.638 36.7034 776.375C36.7034 776.112 36.7552 775.852 36.8559 775.609C36.9565 775.366 37.104 775.146 37.29 774.96L37.35 774.9C37.5805 774.664 37.7352 774.365 37.794 774.041C37.8528 773.716 37.8131 773.382 37.68 773.08C37.5532 772.784 37.3428 772.532 37.0745 772.354C36.8062 772.177 36.4918 772.081 36.17 772.08H36C35.4696 772.08 34.9609 771.869 34.5858 771.494C34.2107 771.119 34 770.61 34 770.08C34 769.55 34.2107 769.041 34.5858 768.666C34.9609 768.291 35.4696 768.08 36 768.08H36.09C36.421 768.072 36.742 767.965 37.0113 767.773C37.2806 767.58 37.4857 767.311 37.6 767C37.7331 766.698 37.7728 766.364 37.714 766.039C37.6552 765.715 37.5005 765.416 37.27 765.18L37.21 765.12C37.024 764.934 36.8765 764.714 36.7759 764.471C36.6752 764.228 36.6234 763.968 36.6234 763.705C36.6234 763.442 36.6752 763.182 36.7759 762.939C36.8765 762.696 37.024 762.476 37.21 762.29C37.3957 762.104 37.6163 761.957 37.8591 761.856C38.1019 761.755 38.3622 761.703 38.625 761.703C38.8878 761.703 39.1481 761.755 39.3909 761.856C39.6337 761.957 39.8543 762.104 40.04 762.29L40.1 762.35C40.3357 762.581 40.635 762.735 40.9594 762.794C41.2838 762.853 41.6184 762.813 41.92 762.68H42C42.2958 762.553 42.548 762.343 42.7257 762.074C42.9034 761.806 42.9987 761.492 43 761.17V761C43 760.47 43.2107 759.961 43.5858 759.586C43.9609 759.211 44.4696 759 45 759C45.5304 759 46.0391 759.211 46.4142 759.586C46.7893 759.961 47 760.47 47 761V761.09C47.0013 761.412 47.0966 761.726 47.2743 761.994C47.452 762.263 47.7042 762.473 48 762.6C48.3016 762.733 48.6362 762.773 48.9606 762.714C49.285 762.655 49.5843 762.501 49.82 762.27L49.88 762.21C50.0657 762.024 50.2863 761.877 50.5291 761.776C50.7719 761.675 51.0322 761.623 51.295 761.623C51.5578 761.623 51.8181 761.675 52.0609 761.776C52.3037 761.877 52.5243 762.024 52.71 762.21C52.896 762.396 53.0435 762.616 53.1441 762.859C53.2448 763.102 53.2966 763.362 53.2966 763.625C53.2966 763.888 53.2448 764.148 53.1441 764.391C53.0435 764.634 52.896 764.854 52.71 765.04L52.65 765.1C52.4195 765.336 52.2648 765.635 52.206 765.959C52.1472 766.284 52.1869 766.618 52.32 766.92V767C52.4468 767.296 52.6572 767.548 52.9255 767.726C53.1938 767.903 53.5082 767.999 53.83 768H54C54.5304 768 55.0391 768.211 55.4142 768.586C55.7893 768.961 56 769.47 56 770C56 770.53 55.7893 771.039 55.4142 771.414C55.0391 771.789 54.5304 772 54 772H53.91C53.5882 772.001 53.2738 772.097 53.0055 772.274C52.7372 772.452 52.5268 772.704 52.4 773Z" stroke="#F15751" stroke-width="2" stroke-linecap="round" stroke-linejoin="round"/>
</g>
<g filter="url(#filter0_d_15_383)">
<ellipse cx="45" cy="250.5" rx="29" ry="29.5" fill="white"/>
</g>
<path d="M36 9L45 2L54 9V20C54 20.5304 53.7893 21.0391 53.4142 21.4142C53.0391 21.7893 52.5304 22 52 22H38C37.4696 22 36.9609 21.7893 36.5858 21.4142C36.2107 21.0391 36 20.5304 36 20V9Z" stroke="#F15751" stroke-width="2" stroke-linecap="round" stroke-linejoin="round"/>
<path d="M42 22V12H48V22" stroke="#F15751" stroke-width="2" stroke-linecap="round" stroke-linejoin="round"/>
<path d="M53 101V99C53 97.9391 52.5786 96.9217 51.8284 96.1716C51.0783 95.4214 50.0609 95 49 95H41C39.9391 95 38.9217 95.4214 38.1716 96.1716C37.4214 96.9217 37 97.9391 37 99V101" stroke="#F15751" stroke-width="2" stroke-linecap="round" stroke-linejoin="round"/>
<path d="M45 91C47.2091 91 49 89.2091 49 87C49 84.7909 47.2091 83 45 83C42.7909 83 41 84.7909 41 87C41 89.2091 42.7909 91 45 91Z" stroke="#F15751" stroke-width="2" stroke-linecap="round" stroke-linejoin="round"/>
<path d="M56 166L46.5 175.5L41.5 170.5L34 178" stroke="#F15751" stroke-width="2" stroke-linecap="round" stroke-linejoin="round"/>
<path d="M50 166H56V172" stroke="#F15751" stroke-width="2" stroke-linecap="round" stroke-linejoin="round"/>
<path d="M52 244H38C36.8954 244 36 244.895 36 246V260C36 261.105 36.8954 262 38 262H52C53.1046 262 54 261.105 54 260V246C54 244.895 53.1046 244 52 244Z" stroke="#F15751" stroke-width="2" stroke-linecap="round" stroke-linejoin="round"/>
<path d="M49 242V246" stroke="#F15751" stroke-width="2" stroke-linecap="round" stroke-linejoin="round"/>
<path d="M41 242V246" stroke="#F15751" stroke-width="2" stroke-linecap="round" stroke-linejoin="round"/>
<path d="M36 250H54" stroke="#F15751" stroke-width="2" stroke-linecap="round" stroke-linejoin="round"/>
<path d="M51 328C51 326.409 50.3679 324.883 49.2426 323.757C48.1174 322.632 46.5913 322 45 322C43.4087 322 41.8826 322.632 40.7574 323.757C39.6321 324.883 39 326.409 39 328C39 335 36 337 36 337H54C54 337 51 335 51 328Z" stroke="#F15751" stroke-width="2" stroke-linecap="round" stroke-linejoin="round"/>
<path d="M46.73 341C46.5542 341.303 46.3019 341.555 45.9982 341.73C45.6946 341.904 45.3504 341.996 45 341.996C44.6496 341.996 44.3054 341.904 44.0018 341.73C43.6982 341.555 43.4458 341.303 43.27 341" stroke="#F15751" stroke-width="2" stroke-linecap="round" stroke-linejoin="round"/>
<defs>
<filter id="filter0_d_15_383" x="0" y="209" width="90" height="91" filterUnits="userSpaceOnUse" color-interpolation-filters="sRGB">
<feFlood flood-opacity="0" result="BackgroundImageFix"/>
<feColorMatrix in="SourceAlpha" type="matrix" values="0 0 0 0 0 0 0 0 0 0 0 0 0 0 0 0 0 0 127 0" result="hardAlpha"/>
<feOffset dy="4"/>
<feGaussianBlur stdDeviation="8"/>
<feComposite in2="hardAlpha" operator="out"/>
<feColorMatrix type="matrix" values="0 0 0 0 0 0 0 0 0 0 0 0 0 0 0 0 0 0 0.09 0"/>
<feBlend mode="normal" in2="BackgroundImageFix" result="effect1_dropShadow_15_383"/>
<feBlend mode="normal" in="SourceGraphic" in2="effect1_dropShadow_15_383" result="shape"/>
</filter>
<clipPath id="clip0_15_383">
<rect width="24" height="24" fill="white" transform="translate(33 758)"/>
</clipPath>
</defs>
</svg>
