<svg width="735" height="196" viewBox="0 0 735 196" fill="none" xmlns="http://www.w3.org/2000/svg">
<path d="M0.676819 194.902L672.787 194.425" stroke="black"/>
<path d="M0.308044 146.473L672.788 146.463" stroke="#CCCCCC" stroke-opacity="0.05"/>
<path d="M0.308716 98.5112L670.425 98.5012" stroke="#CCCCCC" stroke-opacity="0.05"/>
<path d="M0.309509 49.3503H672.79" stroke="#CCCCCC" stroke-opacity="0.05"/>
<path d="M0.874878 1.13654L733.502 1.88524" stroke="#CCCCCC" stroke-opacity="0.05"/>
<path d="M0.874878 1.13654L0.676861 194.902" stroke="#CCCCCC" stroke-opacity="0.06"/>
<path d="M61.9273 1.19891L61.7293 194.964" stroke="#CCCCCC" stroke-opacity="0.06"/>
<path d="M122.979 1.26132L122.781 195.027" stroke="#CCCCCC" stroke-opacity="0.06"/>
<path d="M184.032 1.3237L183.834 195.089" stroke="#CCCCCC" stroke-opacity="0.06"/>
<path d="M245.084 1.38611L244.886 195.152" stroke="#CCCCCC" stroke-opacity="0.06"/>
<path d="M306.136 1.44849L305.938 195.214" stroke="#CCCCCC" stroke-opacity="0.06"/>
<path d="M367.188 1.51089L366.99 195.276" stroke="#CCCCCC" stroke-opacity="0.06"/>
<path d="M428.241 1.57327L428.043 195.339" stroke="#CCCCCC" stroke-opacity="0.06"/>
<path d="M489.293 1.63568L489.095 195.401" stroke="#CCCCCC" stroke-opacity="0.06"/>
<path d="M550.345 1.69806L550.147 195.464" stroke="#CCCCCC" stroke-opacity="0.06"/>
<path d="M611.398 1.76044L611.2 195.526" stroke="#CCCCCC" stroke-opacity="0.06"/>
<path d="M672.45 1.82285L672.252 195.588" stroke="#CCCCCC" stroke-opacity="0.06"/>
<path d="M733.502 1.88522L733.304 195.651" stroke="#CCCCCC" stroke-opacity="0.06"/>
</svg>
