<svg width="672" height="149" viewBox="0 0 672 149" fill="none" xmlns="http://www.w3.org/2000/svg">
<path d="M55.0189 0.429778L55.4791 0.234355L54.604 0.150658L55.0189 0.429778ZM109.267 128.186L108.807 128.381L109.678 128.471L109.267 128.186ZM166.534 45.543L166.969 45.2981L166.123 45.2583L166.534 45.543ZM223.985 147.762L223.549 148.007L224.338 148.116L223.985 147.762ZM278.606 93.3325L278.953 92.9726L278.253 92.9783L278.606 93.3325ZM335.172 147.876L334.825 148.236L335.485 148.266L335.172 147.876ZM389.595 104.148L389.909 104.538L389.934 104.516L389.595 104.148ZM453.004 45.8358L453.402 45.533L452.665 45.4678L453.004 45.8358ZM503.951 112.779L503.553 113.081L503.812 113.259L503.951 112.779ZM558.874 128.645L558.735 129.126L559.234 128.992L558.874 128.645ZM615.555 69.7177L615.916 70.0644L615.932 70.0469L615.555 69.7177ZM671.12 6.16744L665.656 8.0314L670.002 11.8317L671.12 6.16744ZM0.972079 81.652L55.4337 0.708899L54.604 0.150658L0.142399 81.0937L0.972079 81.652ZM54.5586 0.625202L108.807 128.381L109.727 127.99L55.4791 0.234355L54.5586 0.625202ZM109.678 128.471L166.945 45.8278L166.123 45.2583L108.856 127.901L109.678 128.471ZM166.098 45.788L223.549 148.007L224.421 147.517L166.969 45.2981L166.098 45.788ZM224.338 148.116L278.959 93.6867L278.253 92.9783L223.632 147.408L224.338 148.116ZM278.259 93.6924L334.825 148.236L335.519 147.516L278.953 92.9726L278.259 93.6924ZM335.485 148.266L389.909 104.538L389.282 103.759L334.859 147.486L335.485 148.266ZM389.934 104.516L453.342 46.2038L452.665 45.4678L389.257 103.78L389.934 104.516ZM452.606 46.1386L503.553 113.081L504.348 112.476L453.402 45.533L452.606 46.1386ZM503.812 113.259L558.735 129.126L559.013 128.165L504.089 112.298L503.812 113.259ZM559.234 128.992L615.916 70.0644L615.195 69.3711L558.513 128.299L559.234 128.992ZM615.932 70.0469L668.535 9.88424L667.782 9.22602L615.179 69.3886L615.932 70.0469Z" fill="#F15751"/>
</svg>
